<svg viewBox="0 300 900 301" width="900" height="301" xmlns="http://www.w3.org/2000/svg" preserveAspectRatio="none">
  <rect x="0" y="0" width="900" height="601" fill="#4a2c1a"/>
  <path d="M0 392L21.5 401.2C43 410.3 86 428.7 128.8 435.3C171.7 442 214.3 437 257.2 428.5C300 420 343 408 385.8 395.7C428.7 383.3 471.3 370.7 514.2 370.3C557 370 600 382 642.8 393.8C685.7 405.7 728.3 417.3 771.2 410.5C814 403.7 857 378.3 878.5 365.7L900 353L900 601L878.5 601C857 601 814 601 771.2 601C728.3 601 685.7 601 642.8 601C600 601 557 601 514.2 601C471.3 601 428.7 601 385.8 601C343 601 300 601 257.2 601C214.3 601 171.7 601 128.8 601C86 601 43 601 21.5 601L0 601Z" fill="#7e5230"/>
  <path d="M0 444L21.5 448C43 452 86 460 128.8 454.8C171.7 449.7 214.3 431.3 257.2 419.5C300 407.7 343 402.3 385.8 399.2C428.7 396 471.3 395 514.2 398.5C557 402 600 410 642.8 424.2C685.7 438.3 728.3 458.7 771.2 466.2C814 473.7 857 468.3 878.5 465.7L900 463L900 601L878.5 601C857 601 814 601 771.2 601C728.3 601 685.7 601 642.8 601C600 601 557 601 514.2 601C471.3 601 428.7 601 385.8 601C343 601 300 601 257.2 601C214.3 601 171.7 601 128.8 601C86 601 43 601 21.5 601L0 601Z" fill="#a87850"/>
  <path d="M0 466L21.5 465.8C43 465.7 86 465.3 128.8 468.7C171.7 472 214.3 479 257.2 483.8C300 488.7 343 491.3 385.8 492.2C428.7 493 471.3 492 514.2 485.3C557 478.7 600 466.3 642.8 464.2C685.7 462 728.3 470 771.2 470.8C814 471.7 857 465.3 878.5 462.2L900 459L900 601L878.5 601C857 601 814 601 771.2 601C728.3 601 685.7 601 642.8 601C600 601 557 601 514.2 601C471.3 601 428.7 601 385.8 601C343 601 300 601 257.2 601C214.3 601 171.7 601 128.8 601C86 601 43 601 21.5 601L0 601Z" fill="#c9a07a"/>
  <path d="M0 500L21.5 498C43 496 86 492 128.8 498C171.7 504 214.3 520 257.2 520C300 520 343 504 385.8 503.5C428.7 503 471.3 518 514.2 519.7C557 521.3 600 509.7 642.8 506.8C685.7 504 728.3 510 771.2 507.5C814 505 857 494 878.5 488.5L900 483L900 601L878.5 601C857 601 814 601 771.2 601C728.3 601 685.7 601 642.8 601C600 601 557 601 514.2 601C471.3 601 428.7 601 385.8 601C343 601 300 601 257.2 601C214.3 601 171.7 601 128.8 601C86 601 43 601 21.5 601L0 601Z" fill="#ddc5a5"/>
  <path d="M0 556L21.5 553C43 550 86 544 128.8 542.3C171.7 540.7 214.3 543.3 257.2 548.3C300 553.3 343 560.7 385.8 564.2C428.7 567.7 471.3 567.3 514.2 563.8C557 560.3 600 553.7 642.8 550.7C685.7 547.7 728.3 548.3 771.2 545.3C814 542.3 857 535.7 878.5 532.3L900 529L900 601L878.5 601C857 601 814 601 771.2 601C728.3 601 685.7 601 642.8 601C600 601 557 601 514.2 601C471.3 601 428.7 601 385.8 601C343 601 300 601 257.2 601C214.3 601 171.7 601 128.8 601C86 601 43 601 21.5 601L0 601Z" fill="#f2e4d0"/>
</svg>
