<svg viewBox="0 300 900 301" width="900" height="301" xmlns="http://www.w3.org/2000/svg" preserveAspectRatio="none">
  <rect x="0" y="0" width="900" height="601" fill="#f2e4d0"/>
  <path d="M0 374L21.5 384.7C43 395.3 86 416.7 128.8 416.2C171.7 415.7 214.3 393.3 257.2 379.3C300 365.3 343 359.7 385.8 356.8C428.7 354 471.3 354 514.2 359.2C557 364.3 600 374.7 642.8 379.2C685.7 383.7 728.3 382.3 771.2 388.8C814 395.3 857 409.7 878.5 416.8L900 424L900 601L878.5 601C857 601 814 601 771.2 601C728.3 601 685.7 601 642.8 601C600 601 557 601 514.2 601C471.3 601 428.7 601 385.8 601C343 601 300 601 257.2 601C214.3 601 171.7 601 128.8 601C86 601 43 601 21.5 601L0 601Z" fill="#d4b896"/>
  <path d="M0 427L21.5 432C43 437 86 447 128.8 452.7C171.7 458.3 214.3 459.7 257.2 451.8C300 444 343 427 385.8 426.2C428.7 425.3 471.3 440.7 514.2 440C557 439.3 600 422.7 642.8 425C685.7 427.3 728.3 448.7 771.2 454.5C814 460.3 857 450.7 878.5 445.8L900 441L900 601L878.5 601C857 601 814 601 771.2 601C728.3 601 685.7 601 642.8 601C600 601 557 601 514.2 601C471.3 601 428.7 601 385.8 601C343 601 300 601 257.2 601C214.3 601 171.7 601 128.8 601C86 601 43 601 21.5 601L0 601Z" fill="#a87850"/>
  <path d="M0 454L21.5 460.8C43 467.7 86 481.3 128.8 480.3C171.7 479.3 214.3 463.7 257.2 464.2C300 464.7 343 481.3 385.8 488.2C428.7 495 471.3 492 514.2 483C557 474 600 459 642.8 456.5C685.7 454 728.3 464 771.2 474.2C814 484.3 857 494.7 878.5 499.8L900 505L900 601L878.5 601C857 601 814 601 771.2 601C728.3 601 685.7 601 642.8 601C600 601 557 601 514.2 601C471.3 601 428.7 601 385.8 601C343 601 300 601 257.2 601C214.3 601 171.7 601 128.8 601C86 601 43 601 21.5 601L0 601Z" fill="#7e5230"/>
  <path d="M0 516L21.5 513.5C43 511 86 506 128.8 506.8C171.7 507.7 214.3 514.3 257.2 518C300 521.7 343 522.3 385.8 525.8C428.7 529.3 471.3 535.7 514.2 535.7C557 535.7 600 529.3 642.8 528.7C685.7 528 728.3 533 771.2 530.7C814 528.3 857 518.7 878.5 513.8L900 509L900 601L878.5 601C857 601 814 601 771.2 601C728.3 601 685.7 601 642.8 601C600 601 557 601 514.2 601C471.3 601 428.7 601 385.8 601C343 601 300 601 257.2 601C214.3 601 171.7 601 128.8 601C86 601 43 601 21.5 601L0 601Z" fill="#5c3820"/>
  <path d="M0 561L21.5 559.3C43 557.7 86 554.3 128.8 548.2C171.7 542 214.3 533 257.2 532.3C300 531.7 343 539.3 385.8 545.7C428.7 552 471.3 557 514.2 559C557 561 600 560 642.8 556.7C685.7 553.3 728.3 547.7 771.2 549.2C814 550.7 857 559.3 878.5 563.7L900 568L900 601L878.5 601C857 601 814 601 771.2 601C728.3 601 685.7 601 642.8 601C600 601 557 601 514.2 601C471.3 601 428.7 601 385.8 601C343 601 300 601 257.2 601C214.3 601 171.7 601 128.8 601C86 601 43 601 21.5 601L0 601Z" fill="#4a2c1a"/>
</svg>
